<svg xmlns="http://www.w3.org/2000/svg" viewBox="0 0 160 160">
  <defs>
    <linearGradient id="g" x1="0" y1="0" x2="1" y2="1">
      <stop offset="0%" stop-color="#10b981"/>
      <stop offset="100%" stop-color="#065f46"/>
    </linearGradient>
  </defs>
  <rect width="160" height="160" rx="20" fill="url(#g)"/>
  <path d="M42 48h70l-8 28H62l-4 14h56l-4 14H46l-4 14H32l6-20h14l12-50z" fill="white"/>
  <circle cx="68" cy="122" r="8" fill="#fff"/>
  <circle cx="104" cy="122" r="8" fill="#fff"/>
  <path d="M80 20c22 10 35 25 40 44-8-6-17-10-27-12 2-5 3-9 3-13-6 3-11 6-16 10-5-4-10-7-16-10 0 4 1 8 3 13-10 2-19 6-27 12 5-19 18-34 40-44z" fill="#fbbf24"/>
</svg>
